<svg width="142" height="72" viewBox="0 0 142 72" fill="none" xmlns="http://www.w3.org/2000/svg">
<path d="M124.113 0.409935C121.006 1.39422 119.714 2.47078 113.163 9.36077C109.656 13.0826 106.55 16.5584 106.303 17.0813C105.965 17.8195 105.904 18.2809 106.15 18.8653C106.303 19.3267 110.887 24.0635 116.331 29.4463L126.204 39.1969L122.021 40.7656C119.766 41.6378 111.384 44.0436 111.013 44.0064L111 44C111 44.0034 111.004 44.0055 111.013 44.0064L112 44.5L117 43L122.298 41.4423L126.604 39.689L130.111 43.1956L133.617 46.6713L134.171 50.1778C134.479 52.0849 134.755 53.7459 134.755 53.8381L135.955 61.5586C136.109 62.6352 136.355 64.2654 136.478 65.1882C136.693 66.7876 136.816 66.9722 139.031 69.0945C140.323 70.2941 141.399 71.2477 141.461 71.1861C141.553 71.0939 139.831 61.9585 139.492 60.7896L138.139 53.9919C138.108 53.9919 136.017 43.6262 133.433 30.9843L128.727 8.03814L129.957 5.57742L131.157 3.14748L135.647 1.82484C138.108 1.08663 140.354 0.379181 140.6 0.256142C141.399 -0.174484 125.528 -0.0206909 124.113 0.409935Z" fill="#0E0F10"/>
<path d="M126.781 3.82302C127.273 4.31516 127.242 4.53047 126.658 5.11489C126.289 5.484 126.043 5.51476 125.581 5.29945C125.274 5.11489 124.997 4.8073 124.997 4.59199C124.997 4.09985 125.612 3.45391 126.073 3.45391C126.258 3.45391 126.566 3.60771 126.781 3.82302Z" fill="#DFE8EC"/>
<path d="M4.10156 33.3926H2.73438C2.3112 33.3926 1.97754 33.36 1.7334 33.2949C1.50553 33.2298 1.33464 33.1077 1.2207 32.9287C1.10677 32.7497 1.03353 32.5055 1.00098 32.1963C0.984701 31.8708 0.976562 31.4557 0.976562 30.9512C0.976562 30.4954 0.984701 30.1292 1.00098 29.8525C1.03353 29.5596 1.10677 29.3317 1.2207 29.1689C1.33464 29.0062 1.50553 28.9004 1.7334 28.8516C1.97754 28.7865 2.3112 28.7539 2.73438 28.7539H3.97949L3.83301 21.9424C3.83301 21.6006 3.86556 21.3158 3.93066 21.0879C4.01204 20.8438 4.19108 20.6566 4.46777 20.5264C4.74447 20.3962 5.14323 20.3066 5.66406 20.2578C6.20117 20.1927 6.90918 20.1602 7.78809 20.1602C8.66699 20.1602 9.36686 20.1927 9.8877 20.2578C10.4248 20.3066 10.8317 20.3962 11.1084 20.5264C11.3851 20.6566 11.556 20.8438 11.6211 21.0879C11.7025 21.3158 11.7432 21.6006 11.7432 21.9424L11.5723 28.7539H12.8418C13.265 28.7539 13.5905 28.7865 13.8184 28.8516C14.0625 28.9004 14.2415 29.0062 14.3555 29.1689C14.4694 29.3317 14.5345 29.5596 14.5508 29.8525C14.5833 30.1292 14.5996 30.4954 14.5996 30.9512C14.5996 31.4557 14.5833 31.8708 14.5508 32.1963C14.5345 32.5055 14.4694 32.7497 14.3555 32.9287C14.2415 33.1077 14.0625 33.2298 13.8184 33.2949C13.5905 33.36 13.265 33.3926 12.8418 33.3926H11.4746L10.9863 54.6084C10.9863 54.9176 10.9456 55.1618 10.8643 55.3408C10.7829 55.5199 10.6283 55.6582 10.4004 55.7559C10.1725 55.8535 9.84701 55.9186 9.42383 55.9512C9.01693 55.9837 8.47168 56 7.78809 56C7.10449 56 6.55111 55.9837 6.12793 55.9512C5.72103 55.9186 5.40365 55.8535 5.17578 55.7559C4.96419 55.6582 4.81771 55.5199 4.73633 55.3408C4.65495 55.1618 4.61426 54.9176 4.61426 54.6084L4.10156 33.3926ZM18.2861 33.7832C18.2373 32.4811 18.4977 31.3662 19.0674 30.4385C19.6533 29.4945 20.4346 28.7214 21.4111 28.1191C22.404 27.5169 23.5433 27.0775 24.8291 26.8008C26.1149 26.5078 27.4333 26.3613 28.7842 26.3613C30.1351 26.3613 31.4535 26.5078 32.7393 26.8008C34.0251 27.0775 35.1562 27.5169 36.1328 28.1191C37.1257 28.7214 37.9069 29.4945 38.4766 30.4385C39.0625 31.3662 39.3311 32.4811 39.2822 33.7832L38.7207 49.2373C38.6719 50.5719 38.3626 51.695 37.793 52.6064C37.2233 53.5016 36.4827 54.2259 35.5713 54.7793C34.6598 55.3164 33.6182 55.707 32.4463 55.9512C31.2744 56.179 30.0618 56.293 28.8086 56.293C27.5391 56.293 26.3184 56.179 25.1465 55.9512C23.9746 55.707 22.9248 55.3164 21.9971 54.7793C21.0856 54.2259 20.3451 53.5016 19.7754 52.6064C19.2057 51.7113 18.8965 50.5964 18.8477 49.2617L18.2861 33.7832ZM25.5371 49.457C25.5208 50.0755 25.5697 50.5964 25.6836 51.0195C25.8138 51.4427 26.0091 51.7845 26.2695 52.0449C26.5462 52.3053 26.888 52.4925 27.2949 52.6064C27.7181 52.7204 28.2145 52.7773 28.7842 52.7773C29.9235 52.7773 30.7536 52.5332 31.2744 52.0449C31.8115 51.5566 32.0638 50.6859 32.0312 49.4326L31.543 33.3682C31.5267 32.6846 31.4453 32.1312 31.2988 31.708C31.1686 31.2848 30.9814 30.9593 30.7373 30.7314C30.4932 30.5036 30.2083 30.3571 29.8828 30.292C29.5573 30.2106 29.1911 30.1699 28.7842 30.1699C28.3773 30.1699 28.0111 30.2106 27.6855 30.292C27.36 30.3571 27.0752 30.5036 26.8311 30.7314C26.5869 30.9593 26.3916 31.2848 26.2451 31.708C26.1149 32.1312 26.0417 32.6846 26.0254 33.3682L25.5371 49.457ZM44.9463 28.4365C44.9463 28.0947 44.9788 27.8099 45.0439 27.582C45.1253 27.3379 45.2881 27.1507 45.5322 27.0205C45.7926 26.8903 46.167 26.8008 46.6553 26.752C47.1598 26.6868 47.8271 26.6543 48.6572 26.6543C49.4873 26.6543 50.1465 26.6868 50.6348 26.752C51.123 26.8008 51.4974 26.8903 51.7578 27.0205C52.0182 27.1507 52.181 27.3379 52.2461 27.582C52.3275 27.8099 52.3682 28.0947 52.3682 28.4365V29.877C52.8239 29.3724 53.2878 28.9085 53.7598 28.4854C54.248 28.0459 54.7526 27.6715 55.2734 27.3623C55.8105 27.0531 56.3721 26.8089 56.958 26.6299C57.5602 26.4508 58.2031 26.3613 58.8867 26.3613C59.668 26.3613 60.3923 26.4753 61.0596 26.7031C61.7432 26.931 62.321 27.2972 62.793 27.8018C63.2812 28.3063 63.6556 28.9655 63.916 29.7793C64.1764 30.5768 64.2904 31.5534 64.2578 32.709L64.0869 38.3242C64.0869 38.6335 64.0381 38.8776 63.9404 39.0566C63.859 39.2357 63.6963 39.374 63.4521 39.4717C63.208 39.5693 62.8581 39.6344 62.4023 39.667C61.9629 39.6995 61.377 39.7158 60.6445 39.7158C59.9121 39.7158 59.3262 39.6995 58.8867 39.667C58.4473 39.6344 58.1055 39.5693 57.8613 39.4717C57.6335 39.374 57.4788 39.2357 57.3975 39.0566C57.3324 38.8776 57.2917 38.6335 57.2754 38.3242L57.1777 34.9795C57.1615 34.3447 57.1045 33.8158 57.0068 33.3926C56.9092 32.9694 56.7708 32.6357 56.5918 32.3916C56.429 32.1475 56.2337 31.9766 56.0059 31.8789C55.778 31.7812 55.5176 31.7324 55.2246 31.7324C54.7526 31.7324 54.2969 31.9115 53.8574 32.2695C53.4342 32.6276 53.0518 33.0264 52.71 33.4658L52.0996 54.6084C52.0996 54.9176 52.0589 55.1618 51.9775 55.3408C51.8962 55.5199 51.7415 55.6582 51.5137 55.7559C51.2858 55.8535 50.9603 55.9186 50.5371 55.9512C50.1302 55.9837 49.585 56 48.9014 56C48.2178 56 47.6644 55.9837 47.2412 55.9512C46.8343 55.9186 46.5169 55.8535 46.2891 55.7559C46.0775 55.6582 45.931 55.5199 45.8496 55.3408C45.7682 55.1618 45.7275 54.9176 45.7275 54.6084L44.9463 28.4365ZM68.1885 34.4424C68.1559 33.2705 68.3105 32.1882 68.6523 31.1953C68.9941 30.2025 69.4906 29.348 70.1416 28.6318C70.8089 27.9157 71.6064 27.3623 72.5342 26.9717C73.4619 26.5648 74.4954 26.3613 75.6348 26.3613C76.3184 26.3613 76.9531 26.4508 77.5391 26.6299C78.125 26.8089 78.6621 27.0368 79.1504 27.3135C79.6387 27.5739 80.07 27.8669 80.4443 28.1924C80.835 28.5179 81.1686 28.8271 81.4453 29.1201L81.1768 15.6924C81.1768 15.3506 81.2093 15.0658 81.2744 14.8379C81.3558 14.5938 81.5348 14.4066 81.8115 14.2764C82.0882 14.1462 82.487 14.0566 83.0078 14.0078C83.5449 13.9427 84.2529 13.9102 85.1318 13.9102C86.0107 13.9102 86.7106 13.9427 87.2314 14.0078C87.7686 14.0566 88.1755 14.1462 88.4521 14.2764C88.7288 14.4066 88.8997 14.5938 88.9648 14.8379C89.0462 15.0658 89.0869 15.3506 89.0869 15.6924L88.3301 54.6084C88.3301 54.9176 88.2894 55.1618 88.208 55.3408C88.1266 55.5199 87.972 55.6582 87.7441 55.7559C87.5163 55.8535 87.1908 55.9186 86.7676 55.9512C86.3607 55.9837 85.8154 56 85.1318 56C84.4971 56 83.9844 55.9837 83.5938 55.9512C83.2194 55.9186 82.9264 55.8535 82.7148 55.7559C82.5195 55.6582 82.3812 55.5199 82.2998 55.3408C82.2347 55.1618 82.2021 54.9176 82.2021 54.6084V53.6807C81.8604 53.9899 81.4616 54.2992 81.0059 54.6084C80.5664 54.9176 80.07 55.2025 79.5166 55.4629C78.9632 55.707 78.361 55.9023 77.71 56.0488C77.0589 56.2116 76.359 56.293 75.6104 56.293C74.5524 56.293 73.6003 56.1465 72.7539 55.8535C71.9238 55.5605 71.2077 55.0967 70.6055 54.4619C70.0195 53.8109 69.5557 52.9727 69.2139 51.9473C68.8721 50.9056 68.6768 49.6523 68.6279 48.1875L68.1885 34.4424ZM75.3662 48.1875C75.3337 49.3919 75.6104 50.3197 76.1963 50.9707C76.7985 51.6055 77.6204 51.9229 78.6621 51.9229C79.3457 51.9229 79.9561 51.8008 80.4932 51.5566C81.0465 51.2962 81.5104 51.0033 81.8848 50.6777L81.5186 32.6602C81.1279 32.3346 80.6641 32.0498 80.127 31.8057C79.5898 31.5452 79.0446 31.415 78.4912 31.415C78.1331 31.415 77.7913 31.472 77.4658 31.5859C77.1403 31.6836 76.8473 31.8545 76.5869 32.0986C76.3428 32.3265 76.1393 32.6357 75.9766 33.0264C75.8301 33.417 75.7487 33.889 75.7324 34.4424L75.3662 48.1875ZM94.751 33.7832C94.7021 32.4811 94.9626 31.3662 95.5322 30.4385C96.1182 29.4945 96.8994 28.7214 97.876 28.1191C98.8688 27.5169 100.008 27.0775 101.294 26.8008C102.58 26.5078 103.898 26.3613 105.249 26.3613C106.6 26.3613 107.918 26.5078 109.204 26.8008C110.49 27.0775 111.621 27.5169 112.598 28.1191C113.59 28.7214 114.372 29.4945 114.941 30.4385C115.527 31.3662 115.796 32.4811 115.747 33.7832L115.186 49.2373C115.137 50.5719 114.827 51.695 114.258 52.6064C113.688 53.5016 112.948 54.2259 112.036 54.7793C111.125 55.3164 110.083 55.707 108.911 55.9512C107.739 56.179 106.527 56.293 105.273 56.293C104.004 56.293 102.783 56.179 101.611 55.9512C100.439 55.707 99.3896 55.3164 98.4619 54.7793C97.5505 54.2259 96.8099 53.5016 96.2402 52.6064C95.6706 51.7113 95.3613 50.5964 95.3125 49.2617L94.751 33.7832ZM102.002 49.457C101.986 50.0755 102.035 50.5964 102.148 51.0195C102.279 51.4427 102.474 51.7845 102.734 52.0449C103.011 52.3053 103.353 52.4925 103.76 52.6064C104.183 52.7204 104.679 52.7773 105.249 52.7773C106.388 52.7773 107.218 52.5332 107.739 52.0449C108.276 51.5566 108.529 50.6859 108.496 49.4326L108.008 33.3682C107.992 32.6846 107.91 32.1312 107.764 31.708C107.633 31.2848 107.446 30.9593 107.202 30.7314C106.958 30.5036 106.673 30.3571 106.348 30.292C106.022 30.2106 105.656 30.1699 105.249 30.1699C104.842 30.1699 104.476 30.2106 104.15 30.292C103.825 30.3571 103.54 30.5036 103.296 30.7314C103.052 30.9593 102.856 31.2848 102.71 31.708C102.58 32.1312 102.507 32.6846 102.49 33.3682L102.002 49.457Z" fill="black"/>
</svg>
